<svg width="400" height="300" viewBox="0 0 400 300" fill="none" xmlns="http://www.w3.org/2000/svg">
  <rect width="400" height="300" fill="#f8fafc"/>
  
  <!-- Dog silhouette -->
  <path d="M200 80C180 80 165 95 165 115C165 125 155 130 150 135C145 140 140 150 140 165C140 180 150 190 165 190L235 190C250 190 260 180 260 165C260 150 255 140 250 135C245 130 235 125 235 115C235 95 220 80 200 80Z" fill="#9ca3af"/>
  
  <!-- Eyes -->
  <circle cx="185" cy="110" r="5" fill="#374151"/>
  <circle cx="215" cy="110" r="5" fill="#374151"/>
  
  <!-- Nose -->
  <ellipse cx="200" cy="125" rx="3" ry="2" fill="#374151"/>
  
  <!-- Body -->
  <ellipse cx="200" cy="180" rx="50" ry="30" fill="#9ca3af"/>
  
  <!-- Legs -->
  <rect x="170" y="200" width="8" height="25" fill="#9ca3af"/>
  <rect x="185" y="200" width="8" height="25" fill="#9ca3af"/>
  <rect x="207" y="200" width="8" height="25" fill="#9ca3af"/>
  <rect x="222" y="200" width="8" height="25" fill="#9ca3af"/>
  
  <!-- Tail -->
  <ellipse cx="260" cy="170" rx="8" ry="15" fill="#9ca3af" transform="rotate(30 260 170)"/>
  
  <!-- Text -->
  <text x="200" y="260" text-anchor="middle" font-family="Arial, sans-serif" font-size="14" fill="#6b7280">
    画像生成中...
  </text>
</svg>